<?xml version="1.0" encoding="UTF-8" standalone="no"?>
<!-- Created with Inkscape (http://www.inkscape.org/) -->

<svg
   width="512"
   height="512"
   viewBox="0 0 135.46667 135.46667"
   version="1.1"
   id="svg5"
   xmlns="http://www.w3.org/2000/svg"
   xmlns:svg="http://www.w3.org/2000/svg">
  <defs
     id="defs2" />
  <g
     id="layer1">
    <circle
       style="fill:#6f006f;stroke:#ffffff;stroke-width:0.407928;fill-opacity:1"
       id="path985"
       cx="67.733337"
       cy="67.733337"
       r="67.529373" />
    <path
       fill="#afb1b3"
       fill-rule="evenodd"
       d="M 19.921205,41.910903 H 47.022256 V 14.809934 h 27.10085 V 90.692672 H 19.921205 Z M 41.601926,14.809934 V 36.490713 H 19.921205 Z m -10.84026,37.941368 v 5.42019 h 32.52118 v -5.42019 z m 0,10.8404 v 5.42019 h 32.52118 v -5.42019 z m 0,10.840379 v 5.42021 h 32.52118 v -5.42021 z"
       id="path954"
       style="stroke-width:5.42019" />
    <g
       id="g952"
       transform="matrix(0.26458334,0,0,0.26458334,50.945034,47.184121)">
      <g
         id="g891">
	<g
   id="XMLID_48_">
		<g
   id="g888">
			<path
   style="fill:#bdc3c7"
   d="m 63.648,169.162 71.18,71.19 -61.09,12.21 c -0.93,0.19 -1.78,0.65 -2.45,1.32 l -9.74,9.74 -21.17,-21.18 9.74,-9.73 c 0.66,-0.67 1.12,-1.53 1.31,-2.45 z"
   id="path876" />

			<path
   style="fill:#bdc3c7"
   d="m 230.278,81.592 c 2.81,2.81 2.81,7.38 0,10.19 l -73.19,73.2 c -2.81,2.81 -7.38,2.81 -10.19,0 l -7.62,-7.62 c -2.81,-2.81 -2.81,-7.38 0,-10.19 l 73.19,-73.2 c 1.36,-1.36 3.17,-2.11 5.1,-2.11 1.92,0 3.73,0.75 5.09,2.11 z"
   id="path878" />

			<polygon
   style="fill:#ffcd02"
   points="45.428,279.732 13.668,269.152 32.748,250.072 53.918,271.242 "
   id="polygon880" />

			<path
   style="fill:#ffcd02"
   d="m 283.918,54.022 c 4.41,4.41 4.71,11.58 0.68,16.34 l -140.34,165.86 -76.48,-76.49 165.85,-140.34 c 4.76,-4.02 11.94,-3.73 16.34,0.68 z m -41.95,32.66 c 0,-4.3 -1.64,-8.6 -4.91,-11.87 l -7.61,-7.62 c -3.18,-3.17 -7.39,-4.92 -11.88,-4.92 -4.49,0 -8.71,1.75 -11.88,4.92 l -73.19,73.2 c -3.17,3.17 -4.92,7.39 -4.92,11.87 0,4.49 1.75,8.71 4.92,11.88 l 7.62,7.62 c 3.27,3.27 7.57,4.91 11.87,4.91 4.3,0 8.61,-1.64 11.88,-4.91 l 73.19,-73.2 c 3.27,-3.28 4.91,-7.58 4.91,-11.88 z"
   id="path882" />

			<path
   d="m 290.698,47.242 c 7.91,7.9 8.44,20.78 1.22,29.31 0,0 -143.78,169.92 -143.83,169.95 -0.66,0.74 -1.55,1.28 -2.59,1.49 l -68.46,13.69 -26.92,26.93 c -0.92,0.91 -2.14,1.4 -3.4,1.4 -0.5,0 -1.01,-0.08 -1.51,-0.24 l -41.93,-13.98 c -1.58,-0.53 -2.77,-1.83 -3.15,-3.45 -0.38,-1.61 0.1,-3.31 1.28,-4.49 l 40.9,-40.9 13.69,-68.45 c 0.22,-1.09 0.79,-1.99 1.57,-2.67 0.01,-0.01 169.87,-143.76 169.87,-143.76 8.53,-7.22 21.41,-6.69 29.31,1.22 z m -6.1,23.12 c 4.03,-4.76 3.73,-11.93 -0.68,-16.34 l -33.95,-33.95 c -4.4,-4.41 -11.58,-4.7 -16.34,-0.68 l -165.85,140.34 76.48,76.49 z m -149.77,169.99 -71.18,-71.19 -12.22,61.1 c -0.19,0.92 -0.65,1.78 -1.31,2.45 l -9.74,9.73 21.17,21.18 9.74,-9.74 c 0.67,-0.67 1.52,-1.13 2.45,-1.32 z m -89.4,39.38 8.49,-8.49 -21.17,-21.17 -19.08,19.08 z"
   id="path884" />

			<path
   d="m 237.058,74.812 c 3.27,3.27 4.91,7.57 4.91,11.87 0,4.3 -1.64,8.6 -4.91,11.88 l -73.19,73.2 c -3.27,3.27 -7.58,4.91 -11.88,4.91 -4.3,0 -8.6,-1.64 -11.87,-4.91 l -7.62,-7.62 c -3.17,-3.17 -4.92,-7.39 -4.92,-11.88 0,-4.48 1.75,-8.7 4.92,-11.87 l 73.19,-73.2 c 3.17,-3.17 7.39,-4.92 11.88,-4.92 4.49,0 8.7,1.75 11.88,4.92 z m -6.78,16.97 c 2.81,-2.81 2.81,-7.38 0,-10.19 l -7.62,-7.62 c -1.36,-1.36 -3.17,-2.11 -5.09,-2.11 -1.93,0 -3.74,0.75 -5.1,2.11 l -73.19,73.2 c -2.81,2.81 -2.81,7.38 0,10.19 l 7.62,7.62 c 2.81,2.81 7.38,2.81 10.19,0 z"
   id="path886" />

		</g>

	</g>

</g>
      <g
         id="g893">
</g>
      <g
         id="g895">
</g>
      <g
         id="g897">
</g>
      <g
         id="g899">
</g>
      <g
         id="g901">
</g>
      <g
         id="g903">
</g>
      <g
         id="g905">
</g>
      <g
         id="g907">
</g>
      <g
         id="g909">
</g>
      <g
         id="g911">
</g>
      <g
         id="g913">
</g>
      <g
         id="g915">
</g>
      <g
         id="g917">
</g>
      <g
         id="g919">
</g>
      <g
         id="g921">
</g>
    </g>
  </g>
</svg>
